HIERARCHY
ROOT Hips
{
	OFFSET 0.00 0.00 0.00
	CHANNELS 6 Xposition Yposition Zposition Xrotation Yrotation Zrotation
	JOINT Spine
	{
		OFFSET 0.00000 1.72418 2.58627
		CHANNELS 3 Xrotation Yrotation Zrotation
		JOINT Spine1
		{
			OFFSET 0.00000 0.59880 3.39597
			CHANNELS 3 Xrotation Yrotation Zrotation
			JOINT Spine2
			{
				OFFSET 0.00000 0.30055 3.43524
				CHANNELS 3 Xrotation Yrotation Zrotation
				JOINT Spine3
				{
					OFFSET 0.00000 0.00000 3.44836
					CHANNELS 3 Xrotation Yrotation Zrotation
					JOINT Neck
					{
						OFFSET 0.00000 -1.29313 9.05195
						CHANNELS 3 Xrotation Yrotation Zrotation
						JOINT Head
						{
							OFFSET 0.00000 -0.82335 4.66946
							CHANNELS 3 Xrotation Yrotation Zrotation
							End Site
							{
								OFFSET 0.00000 0.00001 5.58203
							}
						}
					}
					JOINT RightShoulder
					{
						OFFSET -1.18828 -1.98046 6.41673
						CHANNELS 3 Xrotation Yrotation Zrotation
						JOINT RightArm
						{
							OFFSET -5.90180 0.00000 0.00000
							CHANNELS 3 Xrotation Yrotation Zrotation
							JOINT RightForeArm
							{
								OFFSET -11.45951 0.00000 0.00000
								CHANNELS 3 Xrotation Yrotation Zrotation
								JOINT RightHand
								{
									OFFSET -10.63451 0.00000 0.00000
									CHANNELS 3 Xrotation Yrotation Zrotation
									JOINT RightHandEnd
									{
										OFFSET -2.86944 0.00000 0.00000
										CHANNELS 3 Xrotation Yrotation Zrotation
										End Site
										{
											OFFSET -2.86944 0.00000 0.00000
										}
									}
									JOINT RightHandThumb1
									{
										OFFSET -1.14778 -1.91296 -0.76518
										CHANNELS 3 Yrotation Xrotation Zrotation
										End Site
										{
											OFFSET -2.77167 -0.74267 0.00000
										}
									}
								}
							}
						}
					}
					JOINT LeftShoulder
					{
						OFFSET 1.18828 -1.98046 6.41673
						CHANNELS 3 Xrotation Yrotation Zrotation
						JOINT LeftArm
						{
							OFFSET 5.90180 0.00000 0.00000
							CHANNELS 3 Xrotation Yrotation Zrotation
							JOINT LeftForeArm
							{
								OFFSET 11.45951 0.00000 0.00000
								CHANNELS 3 Xrotation Yrotation Zrotation
								JOINT LeftHand
								{
									OFFSET 10.63451 0.00000 0.00000
									CHANNELS 3 Xrotation Yrotation Zrotation
									JOINT LeftHandEnd
									{
										OFFSET 2.86944 0.00000 0.00000
										CHANNELS 3 Xrotation Yrotation Zrotation
										End Site
										{
											OFFSET 2.86944 0.00000 0.00000
										}
									}
									JOINT LeftHandThumb1
									{
										OFFSET 1.14778 -1.91296 -0.76518
										CHANNELS 3 Yrotation Xrotation Zrotation
										End Site
										{
											OFFSET 2.77167 -0.74267 0.00000
										}
									}
								}
							}
						}
					}
				}
			}
		}
	}
	JOINT RightUpLeg
	{
		OFFSET -3.52524 0.00000 -1.02984
		CHANNELS 3 Xrotation Yrotation Zrotation
		JOINT RightLeg
		{
			OFFSET 0.00001 0.00000 -17.80965
			CHANNELS 3 Xrotation Yrotation Zrotation
			JOINT RightFoot
			{
				OFFSET 0.00001 0.00000 -17.00908
				CHANNELS 3 Xrotation Yrotation Zrotation
				JOINT RightToeBase
				{
					OFFSET 0.00000 -5.55853 -2.02314
					CHANNELS 3 Xrotation Yrotation Zrotation
					End Site
					{
						OFFSET 0.00000 -2.85188 -0.00000
					}
				}
			}
		}
	}
	JOINT LeftUpLeg
	{
		OFFSET 3.52524 0.00000 -1.02984
		CHANNELS 3 Xrotation Yrotation Zrotation
		JOINT LeftLeg
		{
			OFFSET 0.00001 0.00000 -17.80965
			CHANNELS 3 Xrotation Yrotation Zrotation
			JOINT LeftFoot
			{
				OFFSET 0.00001 0.00000 -17.00908
				CHANNELS 3 Xrotation Yrotation Zrotation
				JOINT LeftToeBase
				{
					OFFSET 0.00000 -5.55853 -2.02314
					CHANNELS 3 Xrotation Yrotation Zrotation
					End Site
					{
						OFFSET 0.00000 -2.85188 -0.00000
					}
				}
			}
		}
	}
}
MOTION
Frames: 9
Frame Time: 0.008342
 -1.0332 16.7967 37.3643 3.9999 5.6096 -176.3787 3.1795 4.8282 -2.7358 1.7077 -0.1275 -0.2998 -1.5634 -1.6780 -4.1967 -0.4786 -0.0938 -0.1989 2.6079 -2.9579 -2.8391 0.9637 1.4514 -1.2613 -7.8408 15.8196 -0.6456 -72.7334 3.4951 2.0770 -0.0001 0.0001 113.2909 4.5603 46.1861 6.7029 0.0000 0.0000 -0.0000 -0.0000 -0.0000 0.0000 -7.8736 -17.9379 -3.3873 -88.2615 -2.7871 8.1729 -0.0001 -0.0001 -114.4167 -10.1778 -48.3780 -25.3698 0.0000 0.0000 -0.0000 0.0000 0.0000 0.0000 -28.0199 8.9152 -26.5649 19.0764 0.0000 0.0000 6.6960 -6.1875 -0.0878 -10.5266 0.0000 -0.0000 15.7420 5.8769 -1.1545 24.4928 0.0000 0.0000 -1.9247 0.4339 -0.3653 -28.3183 0.0000 -0.0000
 -1.0060 17.1071 37.3329 3.8832 5.5523 -176.2018 3.1733 4.7378 -2.7375 1.6920 -0.1327 -0.3063 -1.5133 -1.7141 -4.2669 -0.4465 -0.1058 -0.2076 2.8619 -2.9358 -2.8420 1.1278 1.4548 -1.3359 -7.6730 15.6648 -0.8935 -73.0140 3.1788 1.7349 -0.0001 0.0001 114.1805 4.4233 45.9333 6.9752 0.0000 -0.0000 0.0000 -0.0000 0.0000 0.0000 -7.6256 -17.6371 -3.1588 -88.3785 -2.4442 8.8661 -0.0001 -0.0001 -115.1700 -10.1958 -48.3031 -25.4120 -0.0000 0.0000 0.0000 0.0000 0.0000 -0.0000 -28.2109 8.8695 -25.8719 19.6969 0.0000 0.0000 6.6928 -6.7428 -0.7533 -10.8896 0.0000 -0.0000 15.7211 5.6922 -1.3136 25.0852 0.0000 0.0000 -1.3417 0.3827 -0.5114 -29.2843 0.0000 -0.0000
 -0.9785 17.4185 37.2940 3.7630 5.4975 -176.0373 3.1710 4.6489 -2.7374 1.6757 -0.1375 -0.3122 -1.4524 -1.7550 -4.3265 -0.4112 -0.1140 -0.2143 3.1069 -2.9215 -2.8441 1.2902 1.4613 -1.4097 -7.4509 15.4867 -1.1820 -73.2756 2.8318 1.3549 -0.0001 0.0001 114.9875 4.2297 45.6246 7.1925 -0.0000 -0.0000 -0.0000 0.0000 0.0000 0.0000 -7.3326 -17.3215 -2.9058 -88.4078 -2.0861 9.6234 -0.0001 -0.0001 -115.7986 -10.1071 -48.2523 -25.4076 -0.0000 -0.0000 0.0000 -0.0000 -0.0000 0.0000 -28.4238 8.8227 -25.1811 20.3772 0.0000 0.0000 6.7753 -7.3499 -1.4130 -11.2909 0.0000 -0.0000 15.6885 5.5151 -1.4838 25.6962 0.0000 0.0000 -0.7878 0.3433 -0.6535 -30.2579 0.0000 -0.0000
 -0.9504 17.7318 37.2470 3.6395 5.4418 -175.8827 3.1691 4.5596 -2.7359 1.6589 -0.1411 -0.3166 -1.3800 -1.8027 -4.3771 -0.3742 -0.1174 -0.2182 3.3490 -2.9163 -2.8462 1.4497 1.4704 -1.4826 -7.1795 15.2816 -1.5017 -73.4978 2.4619 0.9366 -0.0001 0.0001 115.6972 3.9503 45.3719 7.4141 -0.0000 -0.0000 -0.0000 0.0000 -0.0000 -0.0000 -6.9908 -16.9801 -2.6381 -88.3555 -1.7104 10.4183 -0.0001 -0.0001 -116.2897 -9.9857 -48.2954 -25.4475 0.0000 -0.0000 0.0000 -0.0000 -0.0000 0.0000 -28.6492 8.7703 -24.5156 21.1094 0.0000 0.0000 6.9304 -7.9396 -2.0335 -11.6780 0.0000 -0.0000 15.6476 5.3388 -1.6598 26.3248 0.0000 0.0000 -0.2702 0.3099 -0.8023 -31.2286 0.0000 -0.0000
 -0.9218 18.0476 37.1914 3.5177 5.3929 -175.7365 3.1721 4.4740 -2.7331 1.6442 -0.1447 -0.3219 -1.3006 -1.8473 -4.4172 -0.3347 -0.1184 -0.2193 3.5902 -2.9235 -2.8500 1.6088 1.4827 -1.5527 -6.8514 15.0642 -1.8523 -73.6746 2.0588 0.4551 -0.0001 0.0001 116.3075 3.5685 45.2773 7.7137 -0.0000 -0.0000 -0.0000 -0.0000 -0.0000 0.0000 -6.5922 -16.6263 -2.3601 -88.2423 -1.3072 11.2574 -0.0001 -0.0001 -116.6457 -9.8802 -48.4697 -25.6016 -0.0000 -0.0000 0.0000 0.0000 -0.0000 -0.0000 -28.8763 8.7192 -23.8851 21.8914 0.0000 0.0000 7.1284 -8.4302 -2.5874 -11.9888 0.0000 -0.0000 15.6084 5.1714 -1.8488 26.9673 0.0000 0.0000 0.2086 0.2774 -0.9553 -32.1845 0.0000 -0.0000
 -0.8925 18.3666 37.1265 3.3922 5.3481 -175.5955 3.1735 4.3951 -2.7305 1.6269 -0.1489 -0.3242 -1.2109 -1.8973 -4.4503 -0.2942 -0.1143 -0.2195 3.8373 -2.9396 -2.8544 1.7660 1.4952 -1.6200 -6.4879 14.8226 -2.2115 -73.7816 1.6435 -0.0715 -0.0001 0.0001 116.8080 3.0699 45.4277 8.1655 0.0000 0.0000 -0.0000 0.0000 0.0000 0.0000 -6.1402 -16.2310 -2.0875 -88.0803 -0.8871 12.0875 -0.0001 -0.0001 -116.8557 -9.8332 -48.7866 -25.9312 -0.0000 -0.0000 0.0000 -0.0000 0.0000 0.0000 -29.1012 8.6650 -23.3067 22.7138 0.0000 0.0000 7.3328 -8.7314 -3.0487 -12.1591 0.0000 -0.0000 15.5677 5.0075 -2.0429 27.6250 0.0000 0.0000 0.6421 0.2347 -1.1199 -33.1118 0.0000 -0.0000
 -0.8627 18.6893 37.0518 3.2677 5.3148 -175.4592 3.1787 4.3225 -2.7256 1.6104 -0.1499 -0.3281 -1.1183 -1.9406 -4.4776 -0.2520 -0.1126 -0.2175 4.0931 -2.9635 -2.8591 1.9230 1.5058 -1.6847 -6.0924 14.5702 -2.5697 -73.8170 1.2154 -0.6597 -0.0001 0.0001 117.2045 2.4563 45.8655 8.8401 0.0000 0.0000 0.0000 0.0000 -0.0000 0.0000 -5.6311 -15.7991 -1.8288 -87.8942 -0.4551 12.9043 -0.0001 -0.0001 -116.9261 -9.8636 -49.2160 -26.4728 0.0000 0.0000 -0.0000 -0.0000 -0.0000 0.0000 -29.3159 8.6142 -22.7833 23.5779 0.0000 0.0000 7.4915 -8.7595 -3.4031 -12.1316 0.0000 -0.0000 15.5349 4.8546 -2.2410 28.2946 0.0000 0.0000 1.0307 0.1732 -1.2940 -33.9979 0.0000 -0.0000
 -0.8322 19.0160 36.9669 3.1383 5.2873 -175.3270 3.1816 4.2551 -2.7192 1.5907 -0.1518 -0.3306 -1.0197 -1.9796 -4.5005 -0.2090 -0.1108 -0.2151 4.3598 -2.9937 -2.8650 2.0793 1.5132 -1.7462 -5.6933 14.2874 -2.9059 -73.7664 0.7988 -1.2763 -0.0001 0.0001 117.4906 1.7177 46.5968 9.8084 -0.0000 0.0000 0.0000 -0.0000 -0.0000 0.0000 -5.0894 -15.3122 -1.6027 -87.6835 -0.0293 13.6736 -0.0001 -0.0001 -116.8577 -9.9520 -49.7024 -27.2170 -0.0000 0.0000 -0.0000 0.0000 -0.0000 -0.0000 -29.5205 8.5588 -22.3210 24.4761 0.0000 0.0000 7.5518 -8.4449 -3.6461 -11.8647 0.0000 -0.0000 15.5039 4.7060 -2.4313 28.9799 0.0000 0.0000 1.3718 0.0857 -1.4791 -34.8343 0.0000 -0.0000
 -0.8011 19.3466 36.8716 3.0046 5.2638 -175.2004 3.1834 4.1883 -2.7101 1.5693 -0.1527 -0.3322 -0.9188 -2.0111 -4.5197 -0.1641 -0.1111 -0.2137 4.6361 -3.0294 -2.8712 2.2355 1.5157 -1.8039 -5.3084 13.9691 -3.2049 -73.6332 0.4086 -1.9094 -0.0001 0.0001 117.6691 0.8669 47.5711 11.1097 -0.0000 0.0000 0.0000 -0.0000 -0.0000 0.0000 -4.5237 -14.7676 -1.4155 -87.4620 0.3776 14.3849 -0.0001 -0.0001 -116.6568 -10.0708 -50.1582 -28.1360 0.0000 -0.0000 0.0000 -0.0000 0.0000 -0.0000 -29.7151 8.4956 -21.9134 25.4109 0.0000 0.0000 7.4538 -7.7481 -3.7897 -11.3389 0.0000 -0.0000 15.4758 4.5596 -2.6026 29.6824 0.0000 0.0000 1.6676 -0.0310 -1.6738 -35.6189 0.0000 -0.0000
